<svg xmlns="http://www.w3.org/2000/svg" viewBox="0 0 605.92 142.38"><defs><style>.cls-1{fill:#fff;}</style></defs><g id="Layer_2" data-name="Layer 2"><g id="Layer_1-2" data-name="Layer 1"><polygon class="cls-1" points="25.47 22.31 0 22.31 0 1.7 74.46 1.7 74.46 22.31 48.99 22.31 48.99 86.59 25.47 86.59 25.47 22.31"/><path class="cls-1" d="M103.21,1.09h22.67L162,86.59H136.8l-6.18-15.16H97.87L91.81,86.59H67.07Zm20.61,52L114.36,29l-9.58,24.13Z"/><path class="cls-1" d="M170.28,1.7h43.53C224.49,1.7,232,4.37,237,9.34A18.62,18.62,0,0,1,242.44,23v.24c0,9.82-5.58,15.65-13.1,18.92,10.31,3.4,16.86,9.22,16.86,20.74v.24c0,14.55-11.89,23.41-32.14,23.41H170.28ZM208,35.53c7.16,0,11.16-2.43,11.16-7.4v-.24c0-4.61-3.64-7.27-10.67-7.27H193.2V35.53Zm3.4,32.14c7.15,0,11.28-2.79,11.28-7.76v-.25c0-4.6-3.64-7.64-11.52-7.64h-18V67.67Z"/><path class="cls-1" d="M286.34,1.09H309l36.14,85.5H319.93l-6.18-15.16H281l-6.07,15.16H250.2Zm20.62,52L297.5,29l-9.58,24.13Z"/><path class="cls-1" d="M345.77,74l13.1-15.65c8.37,6.67,17.71,10.19,27.53,10.19,6.31,0,9.7-2.18,9.7-5.82v-.24c0-3.52-2.79-5.46-14.31-8.13-18.07-4.12-32-9.22-32-26.68v-.24c0-15.77,12.49-27.17,32.86-27.17,14.43,0,25.71,3.88,34.93,11.28L405.8,28.13C398,22.68,389.56,19.77,382,19.77c-5.7,0-8.48,2.42-8.48,5.45v.25c0,3.88,2.91,5.57,14.67,8.24,19.52,4.25,31.65,10.55,31.65,26.44v.24c0,17.34-13.7,27.65-34.32,27.65-15,0-29.35-4.73-39.78-14.06"/><path class="cls-1" d="M428.37,44.38v-.24c0-24.74,19-44.14,44.75-44.14,17.34,0,28.49,7.28,36,17.7L491.43,31.41c-4.85-6.07-10.43-9.95-18.55-9.95-11.89,0-20.26,10.07-20.26,22.44v.24c0,12.73,8.37,22.68,20.26,22.68,8.85,0,14.06-4.12,19.16-10.31l17.7,12.61c-8,11-18.8,19.16-37.59,19.16-24.26,0-43.78-18.55-43.78-43.9"/><path class="cls-1" d="M514.48,44.38v-.24C514.48,19.77,534.12,0,560.32,0s45.6,19.52,45.6,43.9v.24c0,24.38-19.65,44.14-45.84,44.14s-45.6-19.52-45.6-43.9m67.43,0v-.24c0-12.25-8.86-22.92-21.83-22.92S538.61,31.65,538.61,43.9v.24c0,12.25,8.85,22.92,21.71,22.92s21.59-10.43,21.59-22.68"/><path class="cls-1" d="M125.59,108h-4.67a.43.43,0,0,0-.39.24l-11.75,23.4L97,108.27a.45.45,0,0,0-.4-.24H91.88a.44.44,0,0,0-.44.44v33.32a.44.44,0,0,0,.44.44H95.5a.44.44,0,0,0,.44-.44V116l11.26,22.52a.42.42,0,0,0,.39.24h2.29a.44.44,0,0,0,.39-.24l11.31-22.54,0,25.87a.43.43,0,0,0,.44.43h3.52a.44.44,0,0,0,.44-.44V108.47a.44.44,0,0,0-.44-.44"/><path class="cls-1" d="M173.24,137.83h-19V127.09h16.37a.44.44,0,0,0,.44-.44v-3.47a.44.44,0,0,0-.44-.44H154.25V112.43h18.37a.44.44,0,0,0,.44-.44v-3.52a.44.44,0,0,0-.44-.44H150a.43.43,0,0,0-.43.44v33.32a.43.43,0,0,0,.43.44h23.24a.44.44,0,0,0,.44-.44v-3.52a.44.44,0,0,0-.44-.44"/><path class="cls-1" d="M229,108h-4.67a.42.42,0,0,0-.39.24l-11.75,23.4-11.8-23.4A.42.42,0,0,0,200,108h-4.71a.43.43,0,0,0-.44.44v33.32a.43.43,0,0,0,.44.44h3.61a.43.43,0,0,0,.44-.44V116l11.26,22.52a.45.45,0,0,0,.4.24h2.28a.45.45,0,0,0,.4-.24L225,115.93l0,25.87a.44.44,0,0,0,.44.43H229a.43.43,0,0,0,.43-.44V108.47A.43.43,0,0,0,229,108"/><path class="cls-1" d="M267.73,107.93c-10,0-17.91,7.55-17.91,17.2s7.87,17.25,17.91,17.25,17.87-7.58,17.87-17.25-7.85-17.2-17.87-17.2m0,30.09a12.85,12.85,0,1,1,13.08-12.89A13.06,13.06,0,0,1,267.73,138"/><path class="cls-1" d="M325.36,130.64c4.69-1.71,7.27-5.59,7.27-11,0-7.4-4.95-11.63-13.58-11.63H306.38a.44.44,0,0,0-.44.43v33.33a.44.44,0,0,0,.44.44h3.81a.44.44,0,0,0,.44-.44V131.66h8.42c.69,0,1.35,0,1.91-.08L327.82,142a.43.43,0,0,0,.37.2h4.33a.44.44,0,0,0,.39-.23.43.43,0,0,0,0-.46Zm-14.73-18.21h8.42c4.12,0,9,1.27,9,7.32,0,6.21-4.91,7.51-9,7.51h-8.42Z"/><path class="cls-1" d="M369.53,108.29a.44.44,0,0,0-.4-.26h-3.95a.44.44,0,0,0-.4.26l-14.95,33.32a.42.42,0,0,0,0,.42.43.43,0,0,0,.37.2h4a.44.44,0,0,0,.41-.26l3.6-8.26h17.56l3.65,8.26a.44.44,0,0,0,.4.26H384a.43.43,0,0,0,.37-.2.45.45,0,0,0,0-.42Zm4.4,21h-13.7L367,113.7Z"/><path class="cls-1" d="M424,124.25a7.62,7.62,0,0,0,4.88-7.45c0-5.5-4.21-8.77-11.25-8.77h-14a.43.43,0,0,0-.43.43v33.33a.43.43,0,0,0,.43.44h14.24c7.82,0,12.49-3.54,12.49-9.48a8.38,8.38,0,0,0-6.31-8.5m-16.17,2.6h9.78c3,0,5.28.71,6.62,2a4.57,4.57,0,0,1,1.34,3.38,4.78,4.78,0,0,1-1.38,3.54c-1.36,1.35-3.69,2-6.75,2h-9.61Zm9.61-14.42c4.23,0,6.65,1.8,6.65,4.94s-2.42,5.08-6.65,5.08h-9.61v-10Z"/><path class="cls-1" d="M470.34,137.83H456.16V108.47a.44.44,0,0,0-.44-.44h-3.81a.44.44,0,0,0-.44.44v33.32a.44.44,0,0,0,.44.44h18.43a.44.44,0,0,0,.44-.44v-3.52a.44.44,0,0,0-.44-.44"/><path class="cls-1" d="M514,137.83h-19V127.09h16.37a.44.44,0,0,0,.44-.44v-3.47a.44.44,0,0,0-.44-.44H495.05V112.43h18.37a.44.44,0,0,0,.44-.44v-3.52a.44.44,0,0,0-.44-.44H490.8a.44.44,0,0,0-.44.44v33.32a.44.44,0,0,0,.44.44H514a.44.44,0,0,0,.44-.44v-3.52a.44.44,0,0,0-.44-.44"/></g></g></svg>